#Comment line ignore any data following # character 
#Hierarchical Translation and Rotation (.htr) file 
[Header]	
#Header keywords are followed by a single value 
FileType HTR		#Single word string
DataType HTRS		#Translation followed by rotation and scale data
FileVersion 1		#integer
NumSegments 14		#integer
NumFrames 6		#integer
DataFrameRate 30		#integer, data frame rate in this file
EulerRotationOrder ZYX
CalibrationUnits mm
RotationUnits Degrees
GlobalAxisofGravity Y
BoneLengthAxis Y
ScaleFactor 1.00
[SegmentNames&Hierarchy]
#CHILD	PARENT
MASTER GLOBAL
weapon MASTER
barrel_root weapon
middle_left_energyLow_part1 weapon
middle_left_energyLow_part2 weapon
middle_left_root weapon
middle_right_energyLow_part1 weapon
middle_top weapon
barrel1_top_root barrel_root
barrel2_top_root barrel_root
barrel3_top_root barrel_root
barrel1_top_back barrel1_top_root
barrel2_top_back barrel2_top_root
barrel3_top_back barrel3_top_root
[BasePosition]
#SegmentName Tx, Ty, Tz, Rx, Ry, Rz, BoneLength
MASTER 0.000000 0.000000 0.000000 -90.000000 0.000000 0.000000 10.000000 
weapon 0.000000 0.000000 0.000000 0.000000 0.000000 0.000000 10.000000 
barrel_root 0.000000 0.000000 0.000000 0.000000 0.000000 0.000000 10.000000 
middle_left_energyLow_part1 0.000000 0.000000 0.000000 0.000000 0.000000 0.000000 10.000000 
middle_left_energyLow_part2 0.000000 0.000000 0.000000 0.000000 0.000000 0.000000 10.000000 
middle_left_root 0.000000 0.000000 0.000000 0.000000 0.000000 0.000000 10.000000 
middle_right_energyLow_part1 0.000000 0.000000 0.000000 0.000000 0.000000 0.000000 10.000000 
middle_top 0.000000 0.000000 0.000000 0.000000 0.000000 0.000000 10.000000 
barrel1_top_root 0.000000 0.000000 0.000000 0.000000 0.000000 0.000000 10.000000 
barrel2_top_root 0.000000 0.000000 0.000000 0.000000 0.000000 0.000000 10.000000 
barrel3_top_root 0.000000 0.000000 0.000000 0.000000 0.000000 0.000000 10.000000 
barrel1_top_back 0.000000 0.000000 0.000000 0.000000 0.000000 0.000000 10.000000 
barrel2_top_back 0.000000 0.000000 0.000000 0.000000 0.000000 0.000000 10.000000 
barrel3_top_back 0.000000 0.000000 0.000000 0.000000 0.000000 0.000000 10.000000 
#Beginning of Data. Separated by tabs
#Fr	Tx	Ty	Tz	Rx	Ry	Rz	SF
[MASTER]
25 0.000000 0.000000 0.000000 0.000000 -0.000000 0.000000 0.000000
26 0.000000 0.000000 0.000000 0.000000 -0.000000 0.000000 0.000000
27 0.000000 0.000000 0.000000 0.000000 -0.000000 0.000000 0.000000
28 0.000000 0.000000 0.000000 0.000000 -0.000000 0.000000 0.000000
29 0.000000 0.000000 0.000000 0.000000 -0.000000 0.000000 0.000000
30 0.000000 0.000000 0.000000 0.000000 -0.000000 0.000000 0.000000
[weapon]
25 -0.000153 -104.980507 30.104597 0.000000 0.000000 -0.000020 109.211693
26 -0.000038 -104.980507 30.104597 0.000000 0.000000 -0.000020 109.211693
27 -0.000038 -104.980507 30.104597 0.000000 0.000000 -0.000020 109.211693
28 0.000000 -104.980545 30.104597 0.000000 0.000000 -0.000020 109.211723
29 0.000095 -104.980385 30.104752 0.000000 0.000000 -0.000020 109.211617
30 0.000038 -104.980385 30.104521 0.000000 0.000000 -0.000020 109.211555
[barrel_root]
25 0.000089 261.622375 -55.258636 0.001584 -5.604035 0.001584 267.394440
26 0.000095 262.129822 -55.258636 0.001561 -7.466666 0.001561 267.890930
27 0.000057 262.874329 -55.258663 0.001537 -9.544657 0.001537 268.619476
28 0.000019 263.618835 -55.258682 0.001512 -11.819698 0.001512 269.348114
29 -0.000019 264.363342 -55.258709 0.001487 -14.263885 0.001487 270.076843
30 -0.000025 265.316650 -55.258682 0.001461 -16.869591 0.001461 271.010040
[middle_left_energyLow_part1]
25 -149.854584 -30.653191 -34.387047 0.001652 -0.567100 0.001652 156.775269
26 -149.052856 -30.653191 -32.788387 0.001649 -0.764926 0.001649 155.664551
27 -148.151794 -30.653152 -30.987700 0.001646 -0.992439 0.001646 154.430588
28 -147.114487 -30.653152 -28.907887 0.001642 -1.249622 0.001642 153.029251
29 -146.077179 -30.653152 -26.828079 0.001638 -1.536497 0.001638 151.650604
30 -144.879639 -30.653116 -24.415054 0.001634 -1.848104 0.001634 150.086029
[middle_left_energyLow_part2]
25 -168.492340 -28.440590 -73.511887 0.001697 2.504380 0.001697 186.017563
26 -167.980484 -28.485718 -71.971733 0.001711 3.360267 0.001711 184.956238
27 -167.371307 -28.539448 -70.138542 0.001726 4.330167 0.001726 183.703751
28 -166.762115 -28.593178 -68.305351 0.001744 5.404356 0.001744 182.463135
29 -166.034393 -28.657379 -66.115417 0.001764 6.578084 0.001764 180.997009
30 -165.306702 -28.721581 -63.925476 0.001786 7.841745 0.001786 179.548599
[middle_left_root]
25 -73.329239 -30.653076 -73.621902 0.003492 -50.728306 179.996506 108.337311
26 -74.714813 -30.653000 -72.120132 0.003514 -50.974743 179.996475 108.273834
27 -76.272606 -30.653000 -70.432434 0.003538 -51.254333 179.996475 108.248993
28 -77.991608 -30.652960 -68.571312 0.003566 -51.572910 179.996445 108.278893
29 -79.860909 -30.653000 -66.548767 0.003595 -51.891479 179.996399 108.379471
30 -81.933594 -30.652962 -64.308006 0.003628 -52.249252 179.996368 108.573662
[middle_right_energyLow_part1]
25 140.449203 -29.615250 -34.386974 0.001668 -0.565474 179.998337 147.599152
26 139.647446 -29.615250 -32.788387 0.001671 -0.763300 179.998322 146.470306
27 138.746292 -29.615210 -30.987700 0.001674 -0.990806 179.998322 145.216492
28 137.709015 -29.615231 -28.907923 0.001678 -1.247996 179.998322 143.793274
29 136.671768 -29.615250 -26.828156 0.001682 -1.534871 179.998306 142.393768
30 135.474228 -29.615231 -24.415054 0.001687 -1.846478 179.998306 140.806335
[middle_top]
25 -3.220444 44.693943 59.132462 0.150032 0.001658 0.001662 74.192772
26 -3.220520 42.939335 59.132381 0.204435 0.001657 0.001663 73.149139
27 -3.220463 40.967331 59.132381 0.263782 0.001656 0.001664 72.009247
28 -3.220482 38.697258 59.132305 0.328075 0.001655 0.001664 70.742340
29 -3.220501 36.427193 59.132229 0.402258 0.001654 0.001666 69.526489
30 -3.220530 33.806362 59.132309 0.483866 0.001653 0.001667 68.189972
[barrel1_top_root]
25 0.000081 96.240509 0.000132 0.000000 -0.000000 0.000000 96.240509
26 0.000081 96.240509 0.000132 0.000000 -0.000000 0.000000 96.240509
27 0.000081 96.240509 0.000132 0.000000 -0.000000 0.000000 96.240509
28 0.000081 96.240509 0.000132 0.000000 -0.000000 0.000000 96.240509
29 0.000081 96.240509 0.000132 0.000000 -0.000000 0.000000 96.240509
30 0.000081 96.240509 0.000132 0.000000 -0.000000 0.000000 96.240509
[barrel2_top_root]
25 -0.000009 124.139923 0.000132 179.998779 -58.065720 179.998779 124.139923
26 -0.000009 124.139923 0.000132 179.998779 -59.103500 179.998779 124.139923
27 -0.000009 124.139923 0.000132 179.998795 -60.260929 179.998795 124.139923
28 -0.000009 124.139923 0.000132 179.998795 -61.540298 179.998795 124.139923
29 -0.000009 124.139923 0.000132 179.998795 -62.926754 179.998795 124.139923
30 -0.000009 124.139923 0.000132 179.998810 -64.411209 179.998810 124.139923
[barrel3_top_root]
25 0.000101 69.591400 0.000123 179.995728 58.069530 179.995728 69.591400
26 0.000101 69.591400 0.000123 179.995590 59.101627 179.995590 69.591400
27 0.000101 69.591400 0.000123 179.995438 60.264774 179.995438 69.591400
28 0.000101 69.591400 0.000123 179.995224 61.538406 179.995224 69.591400
29 0.000101 69.591400 0.000123 179.994995 62.924847 179.994995 69.591400
30 0.000101 69.591400 0.000123 179.994705 64.409286 179.994705 69.591400
[barrel1_top_back]
25 -3.343935 98.041893 186.671844 -1.012221 0.001674 0.001645 210.878571
26 -3.343935 98.041893 186.671844 -1.358434 0.001679 0.001640 210.878571
27 -3.343935 98.041893 186.671844 -1.759075 0.001685 0.001634 210.878571
28 -3.343935 98.041893 186.671844 -2.199306 0.001691 0.001628 210.878571
29 -3.343935 98.041893 186.671844 -2.684093 0.001698 0.001620 210.878571
30 -3.343935 98.041893 186.671844 -3.208511 0.001706 0.001613 210.878571
[barrel2_top_back]
25 3.886122 70.142326 185.630630 -0.512696 0.001667 0.001652 198.478668
26 3.886122 70.142326 185.630630 -0.690741 0.001670 0.001650 198.478668
27 3.886122 70.142326 185.630630 -0.893521 0.001673 0.001647 198.478668
28 3.886122 70.142326 185.630630 -1.121030 0.001676 0.001643 198.478668
29 3.886122 70.142326 185.630630 -1.368331 0.001679 0.001640 198.478668
30 3.886122 70.142326 185.630630 -1.635421 0.001683 0.001636 198.478668
[barrel3_top_back]
25 -0.050068 125.495209 180.152344 -0.755036 0.001671 0.001649 219.553894
26 -0.050068 125.495209 180.152344 -1.034481 0.001675 0.001645 219.553894
27 -0.050068 125.495209 180.152344 -1.313925 0.001679 0.001641 219.553894
28 -0.050068 125.495209 180.152344 -1.645313 0.001683 0.001636 219.553894
29 -0.050068 125.495209 180.152344 -2.006389 0.001689 0.001630 219.553894
30 -0.050068 125.495209 180.152344 -2.416975 0.001694 0.001624 219.553894
